<?xml version="1.0" encoding="UTF-8" standalone="no"?>
<!-- Created with Inkscape (http://www.inkscape.org/) -->

<svg
   version="1.1"
   id="svg1"
   width="18.299999"
   height="15.999998"
   viewBox="0 0 18.3 15.999999"
   xmlns="http://www.w3.org/2000/svg"
   xmlns:svg="http://www.w3.org/2000/svg">
  <defs
     id="defs1" />
  <g
     id="g1"
     transform="translate(-334.98294,-173.59161)">
    <path
       id="rect1"
       style="fill:#b09879;stroke:none;stroke-width:1.002;stroke-linejoin:round;stroke-dasharray:none;stroke-opacity:1"
       d="m 359.98294,173.59161 h 430.20401 a 25,25 45 0 1 25,25 l 0,310.27634 a 25,25 135 0 1 -25,25 H 359.98294 a 25,25 45 0 1 -25,-25 V 198.59161 a 25,25 135 0 1 25,-25 z"
       transform="matrix(0.0381088,0,0,0.04441035,322.21714,165.88235)" />
    <path
       id="rect1-5"
       style="fill:#ac8f6c;fill-opacity:1;stroke:none;stroke-width:1.002;stroke-linejoin:round;stroke-dasharray:none;stroke-opacity:1"
       d="m 359.98294,173.59161 h 430.20401 a 25,25 45 0 1 25,25 l 0,310.27634 a 25,25 135 0 1 -25,25 H 359.98294 a 25,25 45 0 1 -25,-25 V 198.59161 a 25,25 135 0 1 25,-25 z"
       transform="matrix(0.0328705,0,0,0.03317442,325.30337,169.70085)" />
  </g>
</svg>
