<?xml version="1.0" encoding="UTF-8" standalone="no"?>
<!-- Created with Inkscape (http://www.inkscape.org/) -->

<svg
   version="1.1"
   id="svg1"
   width="16"
   height="16"
   viewBox="0 0 16 16"
   sodipodi:docname="oscilloscope-R45-drawn.svg"
   inkscape:version="1.3.2 (091e20ef0f, 2023-11-25)"
   inkscape:export-filename="oscilloscope-R45-drawn_plain.svg"
   inkscape:export-xdpi="96"
   inkscape:export-ydpi="96"
   xmlns:inkscape="http://www.inkscape.org/namespaces/inkscape"
   xmlns:sodipodi="http://sodipodi.sourceforge.net/DTD/sodipodi-0.dtd"
   xmlns:xlink="http://www.w3.org/1999/xlink"
   xmlns="http://www.w3.org/2000/svg"
   xmlns:svg="http://www.w3.org/2000/svg">
  <defs
     id="defs1">
    <linearGradient
       id="linearGradient9"
       inkscape:collect="always">
      <stop
         style="stop-color:#b09879;stop-opacity:1;"
         offset="0"
         id="stop9" />
      <stop
         style="stop-color:#a38866;stop-opacity:1;"
         offset="1"
         id="stop10" />
    </linearGradient>
    <clipPath
       clipPathUnits="userSpaceOnUse"
       id="clipPath1">
      <path
         style="fill:none;stroke:#000000"
         d="m 94.59879,570.40827 25.85484,-31.35887 21.45867,-10.19658 c 0,0 -110.278227,0.29637 6.44254,-0.71976 116.72076,-1.01612 123.31149,-5.02419 123.31149,-5.02419 l 224.33165,3.85988 1645.71972,-6.4496 8.4537,2.82258 19.6875,10.71875 23.4133,-1.21371 1682.3357,-2.63205 16.0604,4.63609 13.8589,11.56552 9.3075,11.61492 3.8069,11.14567 -0.3704,34.94354 -8.7394,812.03884 -17.3272,640.0378 -6.1991,262.4929 -9.4062,6.0721 -13.2591,2.2298 -70.9597,0.4834 -1058.7923,5.1583 -560.5892,-2.8367 -10.0202,8.5489 -17.5317,0.028 -6.5449,-0.4587 -135.1663,-0.4304 -7.6421,1.9828 -487.989,3.7153 -1126.36488,0.5857 -206.27067,1.5171 -15.8629,-10.8811 -10.33417,-11.2021 -9.4874,-10.3694 -8.67591,-21.1376 0.71976,-6.7778 -7.7621,-8.8311 1.01966,-4.4844 2.10282,-4.5726 4.60787,-7.4092 -0.6245,-109.7667 -7.1376,-4.2197 -0.79738,-5.8251 2.3498,-7.5046 3.39768,-6.4566 -0.21522,-10.8281 -16.45918,-911.8382 z"
         id="path2" />
    </clipPath>
    <clipPath
       clipPathUnits="userSpaceOnUse"
       id="clipPath7">
      <path
         id="path7"
         style="fill:#0000ff;fill-opacity:1;stroke:none;stroke-width:1.89206"
         d="M 94.59879,520.51915 V 2345.2847 H 3918.6418 V 520.51915 Z m 3.484375,5.30469 48.103515,0.71679 -7.91992,3.46485 -39.107423,2.27539 z" />
    </clipPath>
    <clipPath
       clipPathUnits="userSpaceOnUse"
       id="clipPath8">
      <path
         style="opacity:0.82;fill:#00ff00;fill-opacity:1;stroke:none"
         d="m 99.114437,581.06873 4.655353,-17.36902 6.84083,-10.74524 9.71488,-12.6987 9.14107,-7.03792 8.79428,-2.87405 13.81888,-4.91233 2.2703,-0.55884 12.22218,-0.76092 660.76634,0.11227 1302.89625,-1.98839 17.0348,2.74183 12.6987,3.4254 5.2765,3.12602 3.9893,2.72935 2.4199,0.54387 235.0657,-2.08817 1094.5677,3.26574 162.703,-1.42455 108.171,-1.70647 35.5014,-0.78338 57.6282,-2.6071 8.0009,0.32932 8.9115,2.21791 9.3532,4.13643 6.6537,5.05952 4.7227,7.09281 4.2861,5.81545 3.2658,9.10365 3.2981,7.31235 0.968,11.49619 0.5713,17.29418 -0.9679,427.15276 -23.7883,1073.3167 -0.7634,217.083 -7.7889,6.6688 -8.9364,3.0661 -16.8576,0.6486 -15.2335,0.5962 -1666.7027,2.5746 -8.3078,5.3539 -15.6501,2.1655 -10.6654,-2.2576 -1.7364,-0.6313 -134.7584,1.8986 -3.832,2.5124 -7.739,0.4265 -373.6685,2.0009 -1169.32047,2.4924 -271.30055,1.2374 -12.80598,-7.507 -17.12203,-17.1868 -11.00471,-15.3333 -4.47822,-17.3216 0.0499,-5.8554 -5.54601,-5.7281 0.30686,-5.4213 3.06865,-4.2936 3.77468,-4.0915 -2.51729,-113.198 -6.35184,-5.2192 -0.53889,-7.6941 3.59256,-4.4383 4.88987,-7.7839 -4.16886,-247.3501 -13.35734,-674.4706 -12.89579,-512.03444 z"
         id="path9" />
    </clipPath>
    <clipPath
       clipPathUnits="userSpaceOnUse"
       id="clipPath2">
      <path
         style="opacity:0.82;fill:#00ff00"
         d="m 2092.7551,1264.5588 2.6761,-6.7636 3.5565,-6.1109 6.0139,-4.5655 4.7331,-3.8916 7.7285,-1.1732 5.8022,-0.4674 5.8269,1.7852 5.5957,2.7997 4.3874,2.9196 3.8687,4.517 1.795,4.0045 0.927,2.3031 0.4287,1.5718 0.1323,4.9951 0.6148,38.1789 -0.4331,28.1941 -0.1835,2.7432 -1.4942,3.0387 -2.393,4.8001 -1.2472,1.6706 -3.1498,3.291 -4.2057,3.0775 -4.9104,2.528 -3.1577,0.4348 -6.0854,0.5901 -3.4894,-0.044 -4.0936,-0.5892 -5.4811,-2.161 -5.0595,-4.188 -3.5732,-4.6458 -3.2036,-4.719 -2.0305,-4.3662 -0.8053,-2.3375 0.1896,-10.8625 z"
         id="path3" />
    </clipPath>
    <linearGradient
       inkscape:collect="always"
       xlink:href="#linearGradient9"
       id="linearGradient10"
       x1="425.92191"
       y1="705.84656"
       x2="480.47256"
       y2="705.84656"
       gradientUnits="userSpaceOnUse"
       gradientTransform="matrix(0.11689365,0.11689365,-0.11716232,0.11716232,463.70386,521.19264)" />
  </defs>
  <sodipodi:namedview
     id="namedview1"
     pagecolor="#ffffff"
     bordercolor="#000000"
     borderopacity="0.25"
     inkscape:showpageshadow="2"
     inkscape:pageopacity="0.0"
     inkscape:pagecheckerboard="true"
     inkscape:deskcolor="#d1d1d1"
     inkscape:zoom="17.714286"
     inkscape:cx="9.7943547"
     inkscape:cy="14.818548"
     inkscape:window-width="1920"
     inkscape:window-height="1011"
     inkscape:window-x="0"
     inkscape:window-y="0"
     inkscape:window-maximized="1"
     inkscape:current-layer="g1" />
  <g
     inkscape:groupmode="layer"
     inkscape:label="Image"
     id="g1"
     transform="translate(-425.92191,-648.78772)"
     style="display:inline">
    <path
       id="rect9"
       style="opacity:1;fill:url(#linearGradient10);stroke:#000000;stroke-width:0.166185;stroke-dasharray:none"
       d="m 440.22156,649.79587 0.83083,0.83083 c 1.52,1.51999 0.81212,4.67522 -0.71137,6.19871 l -6.40163,6.40163 c -1.52349,1.52349 -4.67872,2.23137 -6.19871,0.71137 l -0.83083,-0.83083 c -1.52,-1.52 -0.81212,-4.67523 0.71137,-6.19872 l 6.40162,-6.40162 c 1.52349,-1.52349 4.67872,-2.23137 6.19872,-0.71137 z"
       sodipodi:nodetypes="sssssssss" />
    <path
       id="path1"
       style="fill:#000000;fill-opacity:0;stroke:none;stroke-width:0.266056;stroke-opacity:1"
       d="m 438.349,658.02363 c -1.90689,1.90689 -4.77726,5.12594 -6.99183,5.98116 -1.7857,0.6896 -3.05627,-0.34618 -3.6734,-0.96332 -0.81477,-0.81476 -1.9928,-1.8497 -0.6686,-4.36213 0.92268,-1.75062 3.99459,-4.80238 5.40907,-6.21686 3.4445,-3.4445 6.35067,-3.27712 7.73316,-1.89463 1.38248,1.38248 1.6361,4.01128 -1.8084,7.45578 z"
       sodipodi:nodetypes="ssssscs" />
    <ellipse
       style="fill:#000000;fill-opacity:0;stroke:none;stroke-opacity:1"
       id="path6"
       cx="582.37933"
       cy="734.9364"
       rx="39.050404"
       ry="47.604588" />
    <path
       id="path8"
       style="fill:#bba7a4;fill-opacity:1;stroke:#000000;stroke-width:0;stroke-dasharray:none"
       d="m 440.45834,655.66726 c -0.29504,0.48517 0.51265,-1.49507 0.6832,-2.52483 0.25348,-1.53056 -0.9637,-2.18446 -1.92147,-3.05849 -0.5889,-0.53741 -1.37628,-0.51672 -1.53574,-0.48273 -0.45895,0.0978 -0.43036,-0.0959 -0.96962,0.17712 -0.23803,0.12049 -0.87723,0.44558 -1.13408,0.64927 -1.35667,1.07595 -5.24355,4.79151 -6.15518,5.62852 -0.87917,0.80717 -0.58371,0.88764 -0.84999,0.79618 -0.39207,-0.13466 -0.23927,-0.0902 2.94378,-3.27324 1.25543,-1.25543 3.12872,-3.25859 4.37401,-3.90647 1.91207,-0.99477 3.44917,-0.471 4.23238,0.43147 0.43207,0.49788 0.88353,0.8779 1.07399,1.30051 0.86858,1.92586 -0.22011,3.40563 -0.74128,4.26268 z"
       sodipodi:nodetypes="sssssssssssss" />
  </g>
</svg>
