<?xml version="1.0" encoding="UTF-8" standalone="no"?>
<!-- Created with Inkscape (http://www.inkscape.org/) -->

<svg
   version="1.1"
   id="svg1"
   width="15.999523"
   height="7.6669998"
   viewBox="0 0 15.999523 7.6669998"
   xmlns:xlink="http://www.w3.org/1999/xlink"
   xmlns="http://www.w3.org/2000/svg"
   xmlns:svg="http://www.w3.org/2000/svg">
  <defs
     id="defs1">
    <linearGradient
       id="linearGradient9">
      <stop
         style="stop-color:#b09879;stop-opacity:1;"
         offset="0"
         id="stop9" />
      <stop
         style="stop-color:#a38866;stop-opacity:1;"
         offset="1"
         id="stop10" />
    </linearGradient>
    <linearGradient
       xlink:href="#linearGradient9"
       id="linearGradient10"
       x1="425.92191"
       y1="705.84656"
       x2="480.47256"
       y2="705.84656"
       gradientUnits="userSpaceOnUse"
       gradientTransform="matrix(0,-0.13927075,0.13959084,0,333.62386,719.12581)" />
  </defs>
  <g
     id="g1"
     transform="translate(-424.15357,-652.17485)"
     style="display:inline">
    <path
       id="rect9"
       style="opacity:1;fill:url(#linearGradient10);stroke:#000000;stroke-width:0.140006;stroke-dasharray:none"
       d="m 424.22358,656.50362 -1e-5,-0.98987 c 0,-1.81096 2.30131,-3.2689 4.11645,-3.2689 l 7.62711,10e-6 c 1.81513,0 4.11644,1.45793 4.11643,3.26889 v 0.98987 c 0,1.81098 -2.30131,3.26891 -4.11644,3.26891 h -7.62709 c -1.81514,0 -4.11645,-1.45793 -4.11645,-3.26891 z" />
    <path
       id="path1"
       style="fill:#000000;fill-opacity:0;stroke:none;stroke-width:0.224144;stroke-opacity:1"
       d="m 429.99947,652.61908 c 2.27193,0 5.8995,-0.20772 7.72821,0.60207 1.47458,0.65296 1.61444,2.02688 1.61444,2.76217 0,0.97073 0.0852,2.28903 -2.2003,2.99688 -1.59253,0.49321 -5.24048,0.48121 -6.92574,0.48121 -4.10389,0 -5.73543,-1.83097 -5.73543,-3.4781 0,-1.64713 1.41494,-3.36423 5.51882,-3.36423 z" />
    <path
       id="path8"
       style="fill:#bba7a4;fill-opacity:1;stroke:#000000;stroke-width:0;stroke-dasharray:none"
       d="m 429.42501,652.80105 c 0.56637,0.0144 1.74663,-0.0141 2.25584,-0.0179 0.72395,-0.005 1.36077,0.008 1.6367,-0.003 1.33294,-0.0561 1.19884,0.0973 2.24053,0.0529 1.00458,-0.0429 2.83087,0.71667 3.49108,1.1881 0.36992,0.26415 -0.43095,-1.51219 -4.22331,-1.51217 -1.49576,0 -6.50064,-0.0219 -7.5436,0.096 -0.68663,0.0776 -2.61428,1.81278 -2.39776,2.09478 0.22973,0.27337 0.70279,-0.81808 1.84648,-1.40082 0.67658,-0.34474 1.689,-0.5232 2.69404,-0.4976 z" />
  </g>
</svg>
