<?xml version="1.0" encoding="UTF-8" standalone="no"?>
<!-- Created with Inkscape (http://www.inkscape.org/) -->

<svg
   version="1.1"
   id="svg1"
   width="16"
   height="16"
   viewBox="0 0 16 16"
   xmlns:xlink="http://www.w3.org/1999/xlink"
   xmlns="http://www.w3.org/2000/svg"
   xmlns:svg="http://www.w3.org/2000/svg">
  <defs
     id="defs1">
    <linearGradient
       id="linearGradient9">
      <stop
         style="stop-color:#b09879;stop-opacity:1;"
         offset="0"
         id="stop9" />
      <stop
         style="stop-color:#a38866;stop-opacity:1;"
         offset="1"
         id="stop10" />
    </linearGradient>
    <linearGradient
       xlink:href="#linearGradient9"
       id="linearGradient10"
       x1="425.92191"
       y1="705.84656"
       x2="480.47256"
       y2="705.84656"
       gradientUnits="userSpaceOnUse"
       gradientTransform="matrix(0.11689365,-0.11689365,0.11716232,0.11716232,298.30662,627.1444)" />
  </defs>
  <g
     id="g1"
     transform="translate(-425.92191,-648.78772)"
     style="display:inline">
    <path
       id="rect9"
       style="opacity:1;fill:url(#linearGradient10);stroke:#000000;stroke-width:0.166185;stroke-dasharray:none"
       d="m 426.90985,650.6267 0.83083,-0.83084 c 1.51998,-1.51999 4.67522,-0.81212 6.19871,0.71137 l 6.40163,6.40164 c 1.52349,1.52349 2.23137,4.67872 0.71137,6.1987 l -0.83083,0.83084 c -1.52,1.52 -4.67523,0.81212 -6.19872,-0.71137 l -6.40162,-6.40162 c -1.52349,-1.52349 -2.23137,-4.67872 -0.71137,-6.19872 z" />
    <path
       id="path1"
       style="fill:#000000;fill-opacity:0;stroke:none;stroke-width:0.266056;stroke-opacity:1"
       d="m 434.98315,652.26801 c 1.90689,1.90689 5.12595,4.77726 5.98116,6.99183 0.6896,1.7857 -0.34618,3.05627 -0.96332,3.6734 -0.81476,0.81477 -1.8497,1.9928 -4.36213,0.6686 -1.75062,-0.92268 -4.80237,-3.99459 -6.21686,-5.40907 -3.4445,-3.4445 -3.27712,-6.35068 -1.89463,-7.73316 1.38248,-1.38248 4.01128,-1.6361 7.45578,1.8084 z" />
    <path
       id="path8"
       style="fill:#bba7a4;fill-opacity:1;stroke:#000000;stroke-width:0;stroke-dasharray:none"
       d="m 427.45586,655.72984 c 0.29504,0.48517 -0.51264,-1.49508 -0.6832,-2.52483 -0.25348,-1.53056 0.9637,-2.18446 1.92147,-3.0585 0.58889,-0.53741 1.37629,-0.51672 1.53575,-0.48273 0.45895,0.0978 0.43035,-0.0959 0.96961,0.17713 0.23802,0.1205 0.87723,0.44558 1.13408,0.64927 1.35667,1.07595 5.24356,4.79151 6.15519,5.62851 0.87916,0.80718 0.58371,0.88765 0.84995,0.79621 0.39207,-0.13464 0.23927,-0.0902 -2.94378,-3.27322 -1.25543,-1.25543 -3.12874,-3.25857 -4.37401,-3.90649 -1.91207,-0.99475 -3.44917,-0.47099 -4.23239,0.43148 -0.43209,0.49785 -0.88354,0.87789 -1.07398,1.30051 -0.86858,1.92586 0.2201,3.40563 0.74128,4.26268 z" />
  </g>
</svg>
