<?xml version="1.0" encoding="UTF-8" standalone="no"?>
<!-- Created with Inkscape (http://www.inkscape.org/) -->

<svg
   version="1.1"
   id="svg1"
   width="15.999842"
   height="33.471001"
   viewBox="0 0 15.999842 33.471"
   xmlns:xlink="http://www.w3.org/1999/xlink"
   xmlns="http://www.w3.org/2000/svg"
   xmlns:svg="http://www.w3.org/2000/svg">
  <defs
     id="defs1">
    <linearGradient
       id="linearGradient9">
      <stop
         style="stop-color:#b29c9c;stop-opacity:1;"
         offset="0"
         id="stop9" />
      <stop
         style="stop-color:#9c7f74;stop-opacity:1;"
         offset="1"
         id="stop10" />
    </linearGradient>
    <linearGradient
       xlink:href="#linearGradient9"
       id="linearGradient10"
       x1="425.92191"
       y1="705.84656"
       x2="480.47256"
       y2="705.84656"
       gradientUnits="userSpaceOnUse"
       gradientTransform="matrix(0.29061357,0,0,0.29128151,302.25141,459.96879)" />
  </defs>
  <g
     id="g1"
     transform="translate(-425.92191,-648.78772)"
     style="display:inline">
    <path
       id="rect9"
       style="opacity:1;fill:url(#linearGradient10);stroke:#000000;stroke-width:0.292147;stroke-dasharray:none"
       d="m 432.92389,649.02147 h 2.06556 c 3.77892,0 6.82115,4.80211 6.82115,8.58971 v 15.91532 c 0,3.7876 -3.04223,8.58971 -6.82115,8.58971 h -2.06556 c -3.77892,0 -6.82115,-4.80211 -6.82115,-8.58971 v -15.91532 c 0,-3.7876 3.04223,-8.58971 6.82115,-8.58971 z" />
    <path
       id="path1"
       style="fill:#000000;fill-opacity:0;stroke:none;stroke-width:0.467716;stroke-opacity:1"
       d="m 440.89754,661.40291 c 0,4.74079 0.43343,12.31036 -1.25633,16.12631 -1.36253,3.07698 -4.22948,3.36883 -5.76376,3.36883 -2.02562,0 -4.77649,0.17788 -6.25354,-4.59132 -1.02919,-3.3231 -1.00414,-10.93524 -1.00414,-14.45183 0,-8.56349 3.82064,-11.968 7.25768,-11.968 3.43704,0 7.02009,2.95252 7.02009,11.51601 z" />
    <path
       id="path8"
       style="fill:#bba7a4;fill-opacity:1;stroke:#000000;stroke-width:0;stroke-dasharray:none"
       d="m 440.83822,656.25504 c 0.23635,0.96985 -1.22121,-2.49573 -2.28927,-3.98779 -1.5875,-2.21769 -3.91337,-1.5175 -6.19044,-1.41339 -1.40008,0.064 -2.35313,1.06849 -2.50909,1.30896 -0.44888,0.69213 -0.65412,0.4158 -0.98513,1.42547 -0.1461,0.44567 -0.53658,1.64435 -0.60265,2.21682 -0.34895,3.02393 -0.56191,12.47428 -0.65467,14.64795 -0.0895,2.09624 0.3778,1.82899 -0.0669,2.04631 -0.65475,0.31997 -0.40953,0.18531 -0.40953,-7.72819 0,-3.12116 -0.16145,-7.93986 0.58118,-10.2932 1.14026,-3.61339 3.70207,-4.87304 5.79748,-4.72479 1.156,0.0818 2.18957,-0.007 2.95168,0.28158 3.47366,1.31428 3.95981,4.50705 4.37733,6.22027 z" />
  </g>
</svg>
