<?xml version="1.0" encoding="UTF-8" standalone="no"?>
<!-- Created with Inkscape (http://www.inkscape.org/) -->

<svg
   version="1.1"
   id="svg1"
   width="16"
   height="16"
   viewBox="0 0 16 16"
   xmlns:xlink="http://www.w3.org/1999/xlink"
   xmlns="http://www.w3.org/2000/svg"
   xmlns:svg="http://www.w3.org/2000/svg">
  <defs
     id="defs1">
    <linearGradient
       id="linearGradient9">
      <stop
         style="stop-color:#b09879;stop-opacity:1;"
         offset="0"
         id="stop9" />
      <stop
         style="stop-color:#a38866;stop-opacity:1;"
         offset="1"
         id="stop10" />
    </linearGradient>
    <linearGradient
       xlink:href="#linearGradient9"
       id="linearGradient10"
       x1="425.92191"
       y1="705.84656"
       x2="480.47256"
       y2="705.84656"
       gradientUnits="userSpaceOnUse"
       gradientTransform="matrix(0.11689365,0.11689365,-0.11716232,0.11716232,463.70386,521.19264)" />
  </defs>
  <g
     id="g1"
     transform="translate(-425.92191,-648.78772)"
     style="display:inline">
    <path
       id="rect9"
       style="opacity:1;fill:url(#linearGradient10);stroke:#000000;stroke-width:0.166185;stroke-dasharray:none"
       d="m 440.22156,649.79587 0.83083,0.83083 c 1.52,1.51999 0.81212,4.67522 -0.71137,6.19871 l -6.40163,6.40163 c -1.52349,1.52349 -4.67872,2.23137 -6.19871,0.71137 l -0.83083,-0.83083 c -1.52,-1.52 -0.81212,-4.67523 0.71137,-6.19872 l 6.40162,-6.40162 c 1.52349,-1.52349 4.67872,-2.23137 6.19872,-0.71137 z" />
    <path
       id="path1"
       style="fill:#000000;fill-opacity:0;stroke:none;stroke-width:0.266056;stroke-opacity:1"
       d="m 438.349,658.02363 c -1.90689,1.90689 -4.77726,5.12594 -6.99183,5.98116 -1.7857,0.6896 -3.05627,-0.34618 -3.6734,-0.96332 -0.81477,-0.81476 -1.9928,-1.8497 -0.6686,-4.36213 0.92268,-1.75062 3.99459,-4.80238 5.40907,-6.21686 3.4445,-3.4445 6.35067,-3.27712 7.73316,-1.89463 1.38248,1.38248 1.6361,4.01128 -1.8084,7.45578 z" />
    <path
       id="path8"
       style="fill:#bba7a4;fill-opacity:1;stroke:#000000;stroke-width:0;stroke-dasharray:none"
       d="m 440.45834,655.66726 c -0.29504,0.48517 0.51265,-1.49507 0.6832,-2.52483 0.25348,-1.53056 -0.9637,-2.18446 -1.92147,-3.05849 -0.5889,-0.53741 -1.37628,-0.51672 -1.53574,-0.48273 -0.45895,0.0978 -0.43036,-0.0959 -0.96962,0.17712 -0.23803,0.12049 -0.87723,0.44558 -1.13408,0.64927 -1.35667,1.07595 -5.24355,4.79151 -6.15518,5.62852 -0.87917,0.80717 -0.58371,0.88764 -0.84999,0.79618 -0.39207,-0.13466 -0.23927,-0.0902 2.94378,-3.27324 1.25543,-1.25543 3.12872,-3.25859 4.37401,-3.90647 1.91207,-0.99477 3.44917,-0.471 4.23238,0.43147 0.43207,0.49788 0.88353,0.8779 1.07399,1.30051 0.86858,1.92586 -0.22011,3.40563 -0.74128,4.26268 z" />
  </g>
</svg>
