<?xml version="1.0" encoding="UTF-8" standalone="no"?>
<!-- Created with Inkscape (http://www.inkscape.org/) -->

<svg
   version="1.1"
   id="svg1"
   width="1920.001"
   height="916.19098"
   viewBox="0 0 1920.001 916.19099"
   sodipodi:docname="oscilloscope-drawn.svg"
   inkscape:version="1.3.2 (091e20ef0f, 2023-11-25)"
   inkscape:export-filename="oscilloscope.jpg"
   inkscape:export-xdpi="96"
   inkscape:export-ydpi="96"
   xmlns:inkscape="http://www.inkscape.org/namespaces/inkscape"
   xmlns:sodipodi="http://sodipodi.sourceforge.net/DTD/sodipodi-0.dtd"
   xmlns="http://www.w3.org/2000/svg"
   xmlns:svg="http://www.w3.org/2000/svg">
  <defs
     id="defs1">
    <clipPath
       clipPathUnits="userSpaceOnUse"
       id="clipPath1">
      <path
         style="fill:none;stroke:#000000"
         d="m 94.59879,570.40827 25.85484,-31.35887 21.45867,-10.19658 c 0,0 -110.278227,0.29637 6.44254,-0.71976 116.72076,-1.01612 123.31149,-5.02419 123.31149,-5.02419 l 224.33165,3.85988 1645.71972,-6.4496 8.4537,2.82258 19.6875,10.71875 23.4133,-1.21371 1682.3357,-2.63205 16.0604,4.63609 13.8589,11.56552 9.3075,11.61492 3.8069,11.14567 -0.3704,34.94354 -8.7394,812.03884 -17.3272,640.0378 -6.1991,262.4929 -9.4062,6.0721 -13.2591,2.2298 -70.9597,0.4834 -1058.7923,5.1583 -560.5892,-2.8367 -10.0202,8.5489 -17.5317,0.028 -6.5449,-0.4587 -135.1663,-0.4304 -7.6421,1.9828 -487.989,3.7153 -1126.36488,0.5857 -206.27067,1.5171 -15.8629,-10.8811 -10.33417,-11.2021 -9.4874,-10.3694 -8.67591,-21.1376 0.71976,-6.7778 -7.7621,-8.8311 1.01966,-4.4844 2.10282,-4.5726 4.60787,-7.4092 -0.6245,-109.7667 -7.1376,-4.2197 -0.79738,-5.8251 2.3498,-7.5046 3.39768,-6.4566 -0.21522,-10.8281 -16.45918,-911.8382 z"
         id="path2" />
    </clipPath>
    <clipPath
       clipPathUnits="userSpaceOnUse"
       id="clipPath7">
      <path
         id="path7"
         style="fill:#0000ff;fill-opacity:1;stroke:none;stroke-width:1.89206"
         d="M 94.59879,520.51915 V 2345.2847 H 3918.6418 V 520.51915 Z m 3.484375,5.30469 48.103515,0.71679 -7.91992,3.46485 -39.107423,2.27539 z" />
    </clipPath>
    <clipPath
       clipPathUnits="userSpaceOnUse"
       id="clipPath8">
      <path
         style="opacity:0.82;fill:#00ff00;fill-opacity:1;stroke:none"
         d="m 99.114437,581.06873 4.655353,-17.36902 6.84083,-10.74524 9.71488,-12.6987 9.14107,-7.03792 8.79428,-2.87405 13.81888,-4.91233 2.2703,-0.55884 12.22218,-0.76092 660.76634,0.11227 1302.89625,-1.98839 17.0348,2.74183 12.6987,3.4254 5.2765,3.12602 3.9893,2.72935 2.4199,0.54387 235.0657,-2.08817 1094.5677,3.26574 162.703,-1.42455 108.171,-1.70647 35.5014,-0.78338 57.6282,-2.6071 8.0009,0.32932 8.9115,2.21791 9.3532,4.13643 6.6537,5.05952 4.7227,7.09281 4.2861,5.81545 3.2658,9.10365 3.2981,7.31235 0.968,11.49619 0.5713,17.29418 -0.9679,427.15276 -23.7883,1073.3167 -0.7634,217.083 -7.7889,6.6688 -8.9364,3.0661 -16.8576,0.6486 -15.2335,0.5962 -1666.7027,2.5746 -8.3078,5.3539 -15.6501,2.1655 -10.6654,-2.2576 -1.7364,-0.6313 -134.7584,1.8986 -3.832,2.5124 -7.739,0.4265 -373.6685,2.0009 -1169.32047,2.4924 -271.30055,1.2374 -12.80598,-7.507 -17.12203,-17.1868 -11.00471,-15.3333 -4.47822,-17.3216 0.0499,-5.8554 -5.54601,-5.7281 0.30686,-5.4213 3.06865,-4.2936 3.77468,-4.0915 -2.51729,-113.198 -6.35184,-5.2192 -0.53889,-7.6941 3.59256,-4.4383 4.88987,-7.7839 -4.16886,-247.3501 -13.35734,-674.4706 -12.89579,-512.03444 z"
         id="path9" />
    </clipPath>
  </defs>
  <sodipodi:namedview
     id="namedview1"
     pagecolor="#ffffff"
     bordercolor="#000000"
     borderopacity="0.25"
     inkscape:showpageshadow="2"
     inkscape:pageopacity="0.0"
     inkscape:pagecheckerboard="true"
     inkscape:deskcolor="#d1d1d1"
     inkscape:zoom="0.13839286"
     inkscape:cx="1997.9355"
     inkscape:cy="227.6129"
     inkscape:window-width="1920"
     inkscape:window-height="1011"
     inkscape:window-x="0"
     inkscape:window-y="0"
     inkscape:window-maximized="1"
     inkscape:current-layer="g1" />
  <g
     inkscape:groupmode="layer"
     inkscape:label="Image"
     id="g1"
     transform="translate(-94.59879,-520.51915)"
     style="display:inline" />
</svg>
