<?xml version="1.0" encoding="UTF-8" standalone="no"?>
<!-- Created with Inkscape (http://www.inkscape.org/) -->

<svg
   version="1.1"
   id="svg1"
   width="112.99998"
   height="21.367386"
   viewBox="0 0 112.99998 21.367386"
   xmlns="http://www.w3.org/2000/svg"
   xmlns:svg="http://www.w3.org/2000/svg">
  <defs
     id="defs1">
    <clipPath
       clipPathUnits="userSpaceOnUse"
       id="clipPath9">
      <path
         style="display:none;fill:#327028;fill-opacity:1"
         d="m 225.42894,128.99545 h 23.16909 l 0.62619,-19.41194 -1.25239,-10.01906 -2.50476,-4.38334 -6.26192,-4.38334 -3.75715,-0.62619 -4.38334,2.50476 -3.75715,3.75715 -3.13095,6.26192 -0.62619,5.00953 -0.6262,17.53336 v 4.38334 z"
         id="path9" />
      <path
         id="lpe_path-effect9"
         style="fill:#327028;fill-opacity:1"
         class="powerclip"
         d="M 167.82885,73.7787 H 306.8243 V 198.99794 H 167.82885 Z m 57.60009,55.21675 h 23.16909 l 0.62619,-19.41194 -1.25239,-10.01906 -2.50476,-4.38334 -6.26192,-4.38334 -3.75715,-0.62619 -4.38334,2.50476 -3.75715,3.75715 -3.13095,6.26192 -0.62619,5.00953 -0.6262,17.53336 v 4.38334 z" />
    </clipPath>
    <clipPath
       clipPathUnits="userSpaceOnUse"
       id="clipPath11">
      <path
         style="display:none;fill:#2c7028;fill-opacity:1"
         d="m 716.86771,207.85532 7.52733,0.88557 7.52734,7.08455 1.77113,9.74125 -1.77113,56.67639 -2.65671,7.52733 -6.64176,5.31341 -3.98506,1.77114 -2.65671,0.44278 -4.87062,-1.32835 -6.19898,-4.42784 -3.09949,-4.42785 -3.09949,-5.31341 0.44278,-57.56195 4.42784,-9.29847 7.08455,-6.19898 z"
         id="path12" />
      <path
         id="lpe_path-effect12"
         style="fill:#2c7028;fill-opacity:1"
         class="powerclip"
         d="M 651.64905,193.293 H 782.72984 V 312.87651 H 651.64905 Z m 65.21866,14.56232 -6.19898,0.88557 -7.08455,6.19898 -4.42784,9.29847 -0.44278,57.56195 3.09949,5.31341 3.09949,4.42785 6.19898,4.42784 4.87062,1.32835 2.65671,-0.44278 3.98506,-1.77114 6.64176,-5.31341 2.65671,-7.52733 1.77113,-56.67639 -1.77113,-9.74125 -7.52734,-7.08455 z" />
    </clipPath>
  </defs>
  <g
     id="g1"
     transform="translate(-4.8791206,-3.6104459)">
    <path
       style="fill:#284a70;fill-opacity:1;stroke-width:0.0999203"
       d="m 5.0042586,3.6104459 -0.125138,3.691583 2.315061,0.06257 0.688261,-2.315061 h 2.7530464 l 0.125138,11.8255811 -0.312846,0.625693 -0.312846,0.437984 -0.3754154,0.125138 h -1.126246 v 1.564231 l 9.8233664,0.06257 -0.06257,-1.501662 -1.188815,-0.06257 -0.625693,-0.312846 -0.250276,-0.688261 -0.250277,-12.0758581 3.128461,0.06257 0.625691,2.189922 2.064785,0.06257 v -3.629015 z"
       id="path1" />
    <path
       style="fill:#284a70;fill-opacity:1"
       d="m 225.42894,141.39785 h 76.39536 l -1.25238,-21.9167 -3.13096,-11.27145 -5.63572,-9.39287 -10.64526,-10.64525 -10.64525,-6.26192 -16.90717,-3.13096 h -38.82388 l -13.15002,2.50477 -12.52383,5.00953 -7.51429,7.5143 -4.38335,10.64526 -3.13095,11.89763 -1.25239,7.5143 v 8.76668 26.30005 l 4.38334,10.64525 8.14049,11.27145 8.76669,5.63572 13.15002,4.38334 10.01906,2.50477 46.33817,0.62619 10.01907,-1.25238 11.27144,-6.26192 7.5143,-7.5143 4.38334,-7.51429 1.25238,-11.27145 -0.62619,-1.87858 H 257.9909 l -1.25238,11.89764 -2.50477,8.76668 -7.5143,5.00954 -10.01906,-0.6262 -8.14049,-3.75714 -5.63573,-7.5143 -1.25238,-11.27145 v -11.27145 -6.26191 z"
       id="path2"
       clip-path="url(#clipPath9)"
       transform="matrix(0.09992025,0,0,0.09992025,1.3752446,0.16913893)" />
    <path
       style="fill:#284a70;fill-opacity:1;stroke-width:0.0999203"
       d="m 32.03416,3.9858609 -0.06257,1.001108 h 1.313954 l 0.375414,0.312846 0.125139,0.500553 -0.06257,12.2009971 -0.187708,0.375415 -0.375415,0.06257 h -0.938537 v 1.063677 l 7.758583,0.125139 -0.06257,-0.875969 -0.68826,-0.312847 -0.375416,-0.375415 -0.06257,-3.003322 3.441307,4.567553 5.380952,0.250276 1.251384,-0.938538 0.250278,-0.250277 -1.877077,-0.125138 -4.81783,-5.944075 2.690477,-2.502769 h 1.251384 l 0.938538,-1.1262461 -5.380953,-0.125138 0.06257,0.75083 0.938538,-0.06257 -3.94186,3.5038761 -0.06257,-9.0099671 z"
       id="path4" />
    <path
       style="fill:#284a70;fill-opacity:1;stroke-width:0.0999203"
       d="m 53.245122,5.9255069 h -1.251385 l -3.629013,1.877076 v 9.8859361 l 0.437984,0.563122 0.750831,0.625693 0.500554,0.375415 4.066999,0.187707 h 1.188814 l -0.06257,-0.375415 -0.938538,-0.125138 -0.500554,-0.437984 -0.375415,-0.312847 -0.375415,-0.375415 -0.06257,-7.13289 0.250277,-0.500554 0.563123,-0.2502774 h 1.564231 l -0.06257,-0.9385377 -1.376523,-0.06257 -0.625691,-0.250277 -0.312847,-1.001107 -0.06257,-1.251384 z"
       id="path5" />
    <path
       style="fill:#284a70;fill-opacity:1;stroke-width:0.0999203"
       d="m 56.56129,8.7411209 -0.06257,1.1262457 0.563124,0.06257 0.312845,0.3754154 0.312846,0.437985 0.06257,7.258029 -0.187707,0.500554 -0.8134,0.187707 -0.437984,-0.06257 v 0.875969 l 7.508305,0.125139 -0.06257,-1.001108 -0.688262,-0.187708 -0.375415,-0.250277 -0.187707,-0.8134 0.06257,-4.567552 0.06257,-0.500554 0.563123,-0.375415 h 0.75083 l 0.688262,0.125139 0.688261,0.500554 0.500554,0.06257 V 9.4919529 l -0.187708,-0.375415 -0.563123,-0.06257 -0.688261,0.187708 -0.750831,0.437985 -0.625692,0.6256911 H 62.129952 V 9.1165379 l -0.12514,-0.437985 z"
       id="path6" />
    <path
       style="fill:#284a70;fill-opacity:1"
       d="m 701.96067,198.293 h 30.05719 l 12.52383,1.87858 21.29052,9.39287 10.64525,19.41194 0.62619,21.9167 0.62619,15.02859 -3.75714,11.89764 -5.00954,8.76668 -6.8881,8.76668 -11.27145,5.63573 -12.52383,3.75715 -10.01906,3.13095 h -30.68339 l -15.68957,-5.70814 -8.41291,-5.31341 -7.97011,-5.7562 -6.64177,-11.51239 -1.77113,-12.39796 -0.44279,-17.26858 0.44279,-11.06961 1.77113,-11.51239 4.87063,-10.18404 8.85569,-8.4129 11.51239,-5.7562 7.97011,-2.6567 z"
       id="path10"
       clip-path="url(#clipPath11)"
       transform="matrix(0.09992025,0,0,0.09992025,1.3752446,-10.822088)" />
    <path
       style="fill:#284a70;fill-opacity:1;stroke-width:0.0999203"
       d="m 80.963287,9.3042439 v 0.7821151 l 0.5944,0.125139 0.46927,0.312846 0.219,0.437984 -0.0313,6.820045 -0.15642,0.34413 -0.28156,0.312846 -0.31285,0.250277 -0.31285,0.09385 v 0.844685 l 6.1005,0.125138 v -0.782115 l -0.46927,-0.250277 -0.28156,-0.312847 0.0313,-6.788759 0.0626,-0.344131 0.18771,-0.218992 0.53184,-0.250276 0.43799,-0.187708 0.28156,-0.125138 0.4067,-0.03128 0.34413,0.03128 0.46927,0.156423 0.50055,0.34413 0.37542,0.563123 0.21899,0.344131 V 12.4327 l -0.0939,5.787653 -0.21899,0.312847 -0.15642,0.187707 -0.37542,0.281561 -0.1877,0.09385 v 0.594408 l 5.91279,0.09385 v -0.719547 l -0.25028,-0.09385 -0.28156,-0.09385 -0.18771,-0.156423 -0.18771,-0.281562 0.15643,-7.101606 -0.0313,-0.437984 -0.0939,-0.281561 -0.21899,-0.469269 -0.46927,-0.5005541 -0.4067,-0.312846 -0.28156,-0.156423 -0.46927,-0.125139 -0.59441,-0.125138 h -0.4067 -0.84469 l -0.84468,0.06257 -0.71955,0.125139 -0.5944,0.250277 -0.8134,0.5318377 -0.43799,0.4692684 -0.4067,-0.06257 -0.15642,-0.5631224 -0.59441,-0.4379847 z"
       id="path13" />
    <path
       style="fill:#284a70;fill-opacity:1;stroke-width:0.0999203"
       d="m 98.294957,4.9869689 -0.12514,2.096068 4.285993,0.125139 0.12514,-2.221207 z"
       id="path14" />
    <path
       style="fill:#284a70;fill-opacity:1;stroke-width:0.0999203"
       d="m 97.168707,9.1791059 -0.0313,0.9698231 h 0.50055 l 0.53184,0.281561 0.15642,0.594408 -0.12514,6.913898 -0.1877,0.406699 -0.25028,0.344131 -0.18771,0.09385 -0.25027,0.125138 v 0.719547 l 4.817823,0.06257 0.18771,-10.3239201 -0.28156,-0.09385 z"
       id="path15" />
    <path
       style="fill:#284a70;fill-opacity:1;stroke-width:0.0999203"
       d="m 104.20775,9.1478209 -0.0313,0.9698231 0.46928,0.03129 3.37873,4.723975 -0.0313,0.844685 -4.2547,3.879291 2.75304,-0.03128 2.69049,-2.909469 0.40669,0.06257 2.15864,3.003322 6.13178,0.187708 -0.0313,-0.8134 -0.93854,-0.03128 -3.78544,-5.068106 0.0626,-0.531838 0.31285,-0.469269 3.03461,-2.815615 0.71954,-0.8603261 -2.2212,-0.01564 -2.90947,3.0658911 h -0.37542 l -2.4402,-3.2223141 z"
       id="path16" />
    <path
       style="fill:#96321c;fill-opacity:1;stroke-width:0.0999203"
       d="m 101.01672,24.852694 1.13881,-0.977032 2.34363,-2.207735 0.89149,-1.013119 -2.45483,-0.128284 -1.13698,0.916147 -3.785443,3.535161 z"
       id="path17" />
  </g>
</svg>
